<svg width="36" height="36" viewBox="0 0 36 36" fill="none" xmlns="http://www.w3.org/2000/svg">
<rect x="0.5" y="0.5" width="35" height="35" rx="17.5" fill="white"/>
<rect x="0.5" y="0.5" width="35" height="35" rx="17.5" stroke="#D0D5DD"/>
<g clip-path="url(#clip0_66_12439)">
<path d="M26 18C26 13.5818 22.4183 10 18 10C13.5817 10 10 13.5818 10 18C10 21.993 12.9255 25.3027 16.75 25.9028V20.3125H14.7188V18H16.75V16.2375C16.75 14.2325 17.9444 13.125 19.7718 13.125C20.647 13.125 21.5625 13.2813 21.5625 13.2813V15.25H20.5538C19.5599 15.25 19.25 15.8667 19.25 16.4994V18H21.4688L21.1141 20.3125H19.25V25.9028C23.0745 25.3027 26 21.9931 26 18Z" fill="#1877F2"/>
<path d="M21.1141 20.3125L21.4688 18H19.25V16.4994C19.25 15.8666 19.5599 15.25 20.5538 15.25H21.5625V13.2812C21.5625 13.2812 20.647 13.125 19.7717 13.125C17.9444 13.125 16.75 14.2325 16.75 16.2375V18H14.7188V20.3125H16.75V25.9028C17.1635 25.9676 17.5814 26.0001 18 26C18.4186 26.0001 18.8365 25.9676 19.25 25.9028V20.3125H21.1141Z" fill="white"/>
</g>
<defs>
<clipPath id="clip0_66_12439">
<rect width="16" height="16" fill="white" transform="translate(10 10)"/>
</clipPath>
</defs>
</svg>
