<svg width="36" height="36" viewBox="0 0 36 36" fill="none" xmlns="http://www.w3.org/2000/svg">
<rect x="0.5" y="0.5" width="35" height="35" rx="17.5" fill="white"/>
<rect x="0.5" y="0.5" width="35" height="35" rx="17.5" stroke="#D0D5DD"/>
<rect x="9.25" y="9.25" width="17.5" height="17.5" rx="6" fill="url(#paint0_radial_66_12442)"/>
<rect x="9.25" y="9.25" width="17.5" height="17.5" rx="6" fill="url(#paint1_radial_66_12442)"/>
<rect x="9.25" y="9.25" width="17.5" height="17.5" rx="6" fill="url(#paint2_radial_66_12442)"/>
<path d="M22.375 14.5625C22.375 15.0803 21.9553 15.5 21.4375 15.5C20.9197 15.5 20.5 15.0803 20.5 14.5625C20.5 14.0447 20.9197 13.625 21.4375 13.625C21.9553 13.625 22.375 14.0447 22.375 14.5625Z" fill="white"/>
<path fill-rule="evenodd" clip-rule="evenodd" d="M18 21.125C19.7259 21.125 21.125 19.7259 21.125 18C21.125 16.2741 19.7259 14.875 18 14.875C16.2741 14.875 14.875 16.2741 14.875 18C14.875 19.7259 16.2741 21.125 18 21.125ZM18 19.875C19.0355 19.875 19.875 19.0355 19.875 18C19.875 16.9645 19.0355 16.125 18 16.125C16.9645 16.125 16.125 16.9645 16.125 18C16.125 19.0355 16.9645 19.875 18 19.875Z" fill="white"/>
<path fill-rule="evenodd" clip-rule="evenodd" d="M11.75 17.75C11.75 15.6498 11.75 14.5997 12.1587 13.7975C12.5183 13.0919 13.0919 12.5183 13.7975 12.1587C14.5997 11.75 15.6498 11.75 17.75 11.75H18.25C20.3502 11.75 21.4003 11.75 22.2025 12.1587C22.9081 12.5183 23.4817 13.0919 23.8413 13.7975C24.25 14.5997 24.25 15.6498 24.25 17.75V18.25C24.25 20.3502 24.25 21.4003 23.8413 22.2025C23.4817 22.9081 22.9081 23.4817 22.2025 23.8413C21.4003 24.25 20.3502 24.25 18.25 24.25H17.75C15.6498 24.25 14.5997 24.25 13.7975 23.8413C13.0919 23.4817 12.5183 22.9081 12.1587 22.2025C11.75 21.4003 11.75 20.3502 11.75 18.25V17.75ZM17.75 13H18.25C19.3207 13 20.0486 13.001 20.6112 13.0469C21.1592 13.0917 21.4395 13.1729 21.635 13.2725C22.1054 13.5122 22.4878 13.8946 22.7275 14.365C22.8271 14.5605 22.9083 14.8408 22.9531 15.3888C22.999 15.9514 23 16.6793 23 17.75V18.25C23 19.3207 22.999 20.0486 22.9531 20.6112C22.9083 21.1592 22.8271 21.4395 22.7275 21.635C22.4878 22.1054 22.1054 22.4878 21.635 22.7275C21.4395 22.8271 21.1592 22.9083 20.6112 22.9531C20.0486 22.999 19.3207 23 18.25 23H17.75C16.6793 23 15.9514 22.999 15.3888 22.9531C14.8408 22.9083 14.5605 22.8271 14.365 22.7275C13.8946 22.4878 13.5122 22.1054 13.2725 21.635C13.1729 21.4395 13.0917 21.1592 13.0469 20.6112C13.001 20.0486 13 19.3207 13 18.25V17.75C13 16.6793 13.001 15.9514 13.0469 15.3888C13.0917 14.8408 13.1729 14.5605 13.2725 14.365C13.5122 13.8946 13.8946 13.5122 14.365 13.2725C14.5605 13.1729 14.8408 13.0917 15.3888 13.0469C15.9514 13.001 16.6793 13 17.75 13Z" fill="white"/>
<defs>
<radialGradient id="paint0_radial_66_12442" cx="0" cy="0" r="1" gradientUnits="userSpaceOnUse" gradientTransform="translate(15.5 22.375) rotate(-55.3758) scale(15.9498)">
<stop stop-color="#B13589"/>
<stop offset="0.79309" stop-color="#C62F94"/>
<stop offset="1" stop-color="#8A3AC8"/>
</radialGradient>
<radialGradient id="paint1_radial_66_12442" cx="0" cy="0" r="1" gradientUnits="userSpaceOnUse" gradientTransform="translate(14.875 27.375) rotate(-65.1363) scale(14.1214)">
<stop stop-color="#E0E8B7"/>
<stop offset="0.444662" stop-color="#FB8A2E"/>
<stop offset="0.71474" stop-color="#E2425C"/>
<stop offset="1" stop-color="#E2425C" stop-opacity="0"/>
</radialGradient>
<radialGradient id="paint2_radial_66_12442" cx="0" cy="0" r="1" gradientUnits="userSpaceOnUse" gradientTransform="translate(8.3125 9.875) rotate(-8.1301) scale(24.3068 5.19897)">
<stop offset="0.156701" stop-color="#406ADC"/>
<stop offset="0.467799" stop-color="#6A45BE"/>
<stop offset="1" stop-color="#6A45BE" stop-opacity="0"/>
</radialGradient>
</defs>
</svg>
