<svg width="36" height="36" viewBox="0 0 36 36" fill="none" xmlns="http://www.w3.org/2000/svg">
<rect x="0.5" y="0.5" width="35" height="35" rx="17.5" fill="white"/>
<rect x="0.5" y="0.5" width="35" height="35" rx="17.5" stroke="#D0D5DD"/>
<rect x="9.25" y="9.25" width="17.5" height="17.5" rx="8.75" fill="#1275B1"/>
<path d="M15.8866 14.0576C15.8866 14.6417 15.3803 15.1152 14.7558 15.1152C14.1313 15.1152 13.625 14.6417 13.625 14.0576C13.625 13.4735 14.1313 13 14.7558 13C15.3803 13 15.8866 13.4735 15.8866 14.0576Z" fill="white"/>
<path d="M13.7796 15.8926H15.7126V21.75H13.7796V15.8926Z" fill="white"/>
<path d="M18.8247 15.8926H16.8918V21.75H18.8247C18.8247 21.75 18.8247 19.906 18.8247 18.753C18.8247 18.061 19.061 17.366 20.0039 17.366C21.0694 17.366 21.063 18.2716 21.058 18.9732C21.0515 19.8903 21.067 20.8262 21.067 21.75H23V18.6586C22.9836 16.6846 22.4693 15.7751 20.7771 15.7751C19.7721 15.7751 19.1492 16.2313 18.8247 16.6441V15.8926Z" fill="white"/>
</svg>
