<svg width="29" height="29" viewBox="0 0 29 29" fill="none" xmlns="http://www.w3.org/2000/svg">
<rect x="0.5" y="0.5" width="28" height="28" rx="8" fill="white"/>
<rect x="0.5" y="0.5" width="28" height="28" rx="8" stroke="#D0D5DD"/>
<g clip-path="url(#clip0_66_13076)">
<path d="M4.92715 14.3804C4.92668 16.0608 5.36918 17.7016 6.21059 19.1478L4.84668 24.089L9.94293 22.7631C11.3525 23.5245 12.9318 23.9235 14.5367 23.9236H14.5409C19.8389 23.9236 24.1517 19.6458 24.1539 14.3879C24.155 11.8401 23.1559 9.44428 21.3407 7.6418C19.5259 5.83948 17.1122 4.84638 14.5405 4.84521C9.24184 4.84521 4.92941 9.12273 4.92723 14.3804" fill="url(#paint0_linear_66_13076)"/>
<path d="M4.58359 14.3772C4.58305 16.1181 5.04141 17.8175 5.91281 19.3155L4.5 24.4339L9.77898 23.0605C11.2335 23.8474 12.8712 24.2622 14.5376 24.2629H14.5419C20.03 24.2629 24.4977 19.8312 24.5 14.3851C24.5009 11.7457 23.4659 9.2638 21.5859 7.39674C19.7057 5.52992 17.2057 4.50109 14.5419 4.5C9.05281 4.5 4.58578 8.93101 4.58359 14.3772ZM7.72742 19.0575L7.53031 18.7471C6.70172 17.4398 6.26437 15.9291 6.265 14.3778C6.26672 9.85109 9.97953 6.16822 14.545 6.16822C16.7559 6.16915 18.8337 7.02434 20.3966 8.57597C21.9593 10.1278 22.8192 12.1905 22.8187 14.3845C22.8166 18.9112 19.1037 22.5946 14.5419 22.5946H14.5386C13.0532 22.5938 11.5964 22.198 10.3259 21.45L10.0236 21.2721L6.89094 22.0871L7.72742 19.0575Z" fill="url(#paint1_linear_66_13076)"/>
<path d="M12.0525 10.2478C11.8661 9.83668 11.67 9.82838 11.4927 9.82117C11.3475 9.81497 11.1816 9.81544 11.0158 9.81544C10.8499 9.81544 10.5803 9.87738 10.3524 10.1243C10.1243 10.3714 9.48145 10.9686 9.48145 12.1833C9.48145 13.3979 10.3731 14.5719 10.4974 14.7368C10.6218 14.9013 12.2187 17.4737 14.7478 18.4633C16.8496 19.2857 17.2774 19.1222 17.7336 19.0809C18.1898 19.0399 19.2057 18.4839 19.413 17.9074C19.6204 17.3309 19.6204 16.8368 19.5582 16.7336C19.4961 16.6307 19.3301 16.5689 19.0813 16.4455C18.8325 16.3221 17.6091 15.7247 17.3811 15.6423C17.1529 15.56 16.9871 15.5189 16.8211 15.7661C16.6552 16.013 16.1787 16.5689 16.0335 16.7336C15.8884 16.8986 15.7432 16.9192 15.4944 16.7957C15.2454 16.6718 14.4441 16.4114 13.4934 15.5704C12.7537 14.916 12.2543 14.1078 12.1092 13.8606C11.964 13.6138 12.0936 13.48 12.2184 13.357C12.3302 13.2464 12.4673 13.0687 12.5918 12.9246C12.7159 12.7804 12.7573 12.6775 12.8403 12.5129C12.9233 12.3481 12.8818 12.2039 12.8196 12.0804C12.7573 11.9569 12.2738 10.7359 12.0525 10.2478Z" fill="white"/>
</g>
<defs>
<linearGradient id="paint0_linear_66_13076" x1="970.21" y1="1929.23" x2="970.21" y2="4.84521" gradientUnits="userSpaceOnUse">
<stop stop-color="#1FAF38"/>
<stop offset="1" stop-color="#60D669"/>
</linearGradient>
<linearGradient id="paint1_linear_66_13076" x1="1004.5" y1="1997.89" x2="1004.5" y2="4.5" gradientUnits="userSpaceOnUse">
<stop stop-color="#F9F9F9"/>
<stop offset="1" stop-color="white"/>
</linearGradient>
<clipPath id="clip0_66_13076">
<rect width="20" height="20" fill="white" transform="translate(4.5 4.5)"/>
</clipPath>
</defs>
</svg>
