<svg width="36" height="36" viewBox="0 0 36 36" fill="none" xmlns="http://www.w3.org/2000/svg">
<rect x="0.5" y="0.5" width="35" height="35" rx="17.5" fill="white"/>
<rect x="0.5" y="0.5" width="35" height="35" rx="17.5" stroke="#D0D5DD"/>
<path d="M9.40282 14.2132C9.48315 12.9765 10.4775 12.0072 11.7153 11.9459C13.5077 11.8571 16.0697 11.75 18 11.75C19.9303 11.75 22.4923 11.8571 24.2847 11.9459C25.5225 12.0072 26.5169 12.9765 26.5972 14.2132C26.6741 15.3981 26.75 16.856 26.75 18C26.75 19.144 26.6741 20.6019 26.5972 21.7868C26.5169 23.0235 25.5225 23.9928 24.2847 24.0541C22.4923 24.1429 19.9303 24.25 18 24.25C16.0697 24.25 13.5077 24.1429 11.7153 24.0541C10.4775 23.9928 9.48315 23.0235 9.40282 21.7868C9.32585 20.6019 9.25 19.144 9.25 18C9.25 16.856 9.32585 15.3981 9.40282 14.2132Z" fill="#FC0D1B"/>
<path d="M16.125 15.5V20.5L21.125 18L16.125 15.5Z" fill="white"/>
</svg>
